<svg  viewBox="0 0 316 316" fill="none" xmlns="http://www.w3.org/2000/svg">
<rect width="316" height="316" fill="#B3D7C4"/>
<path d="M219.833 112.831H196V95.2034C196 93.9866 195.03 93 193.833 93H120.167C118.97 93 118 93.9866 118 95.2034V126.051H94.1667C92.9701 126.051 92 127.037 92 128.254V218.593C92 219.81 92.9701 220.797 94.1667 220.797C95.3632 220.797 96.3333 219.81 96.3333 218.593V130.458H118V220.797C118 222.013 118.97 223 120.167 223H193.833C195.03 223 196 222.013 196 220.797V117.237H217.667V218.593C217.667 219.81 218.637 220.797 219.833 220.797C221.03 220.797 222 219.81 222 218.593V115.034C222 113.817 221.03 112.831 219.833 112.831ZM154.833 218.593H146.167V198.763H154.833V218.593ZM167.833 218.593H159.167V198.763H167.833V218.593ZM191.667 218.593H172.167V196.559C172.167 195.342 171.197 194.356 170 194.356H144C142.803 194.356 141.833 195.342 141.833 196.559V218.593H122.333V97.4068H191.667V218.593Z" fill="black"/>
<path d="M141.833 101.814H128.833C127.637 101.814 126.667 102.8 126.667 104.017V117.237C126.667 118.454 127.637 119.441 128.833 119.441H141.833C143.03 119.441 144 118.454 144 117.237V104.017C144 102.8 143.03 101.814 141.833 101.814ZM139.667 115.034H131V106.22H139.667V115.034Z" fill="black"/>
<path d="M163.5 101.814H150.5C149.304 101.814 148.333 102.8 148.333 104.017V117.237C148.333 118.454 149.304 119.441 150.5 119.441H163.5C164.697 119.441 165.667 118.454 165.667 117.237V104.017C165.667 102.8 164.697 101.814 163.5 101.814ZM161.333 115.034H152.667V106.22H161.333V115.034Z" fill="black"/>
<path d="M185.167 101.814H172.167C170.97 101.814 170 102.8 170 104.017V117.237C170 118.454 170.97 119.441 172.167 119.441H185.167C186.363 119.441 187.333 118.454 187.333 117.237V104.017C187.333 102.8 186.363 101.814 185.167 101.814ZM183 115.034H174.333V106.22H183V115.034Z" fill="black"/>
<path d="M141.833 123.848H128.833C127.637 123.848 126.667 124.834 126.667 126.051V139.271C126.667 140.488 127.637 141.475 128.833 141.475H141.833C143.03 141.475 144 140.488 144 139.271V126.051C144 124.834 143.03 123.848 141.833 123.848ZM139.667 137.068H131V128.255H139.667V137.068Z" fill="black"/>
<path d="M163.5 123.848H150.5C149.304 123.848 148.333 124.834 148.333 126.051V139.271C148.333 140.488 149.304 141.475 150.5 141.475H163.5C164.697 141.475 165.667 140.488 165.667 139.271V126.051C165.667 124.834 164.697 123.848 163.5 123.848ZM161.333 137.068H152.667V128.255H161.333V137.068Z" fill="black"/>
<path d="M185.167 123.848H172.167C170.97 123.848 170 124.834 170 126.051V139.271C170 140.488 170.97 141.475 172.167 141.475H185.167C186.363 141.475 187.333 140.488 187.333 139.271V126.051C187.333 124.834 186.363 123.848 185.167 123.848ZM183 137.068H174.333V128.255H183V137.068Z" fill="black"/>
<path d="M141.833 145.881H128.833C127.637 145.881 126.667 146.868 126.667 148.085V161.305C126.667 162.522 127.637 163.508 128.833 163.508H141.833C143.03 163.508 144 162.522 144 161.305V148.085C144 146.868 143.03 145.881 141.833 145.881ZM139.667 159.102H131V150.288H139.667V159.102Z" fill="black"/>
<path d="M163.5 145.881H150.5C149.304 145.881 148.333 146.868 148.333 148.085V161.305C148.333 162.522 149.304 163.508 150.5 163.508H163.5C164.697 163.508 165.667 162.522 165.667 161.305V148.085C165.667 146.868 164.697 145.881 163.5 145.881ZM161.333 159.102H152.667V150.288H161.333V159.102Z" fill="black"/>
<path d="M185.167 145.881H172.167C170.97 145.881 170 146.868 170 148.085V161.305C170 162.522 170.97 163.508 172.167 163.508H185.167C186.363 163.508 187.333 162.522 187.333 161.305V148.085C187.333 146.868 186.363 145.881 185.167 145.881ZM183 159.102H174.333V150.288H183V159.102Z" fill="black"/>
<path d="M141.833 167.915H128.833C127.637 167.915 126.667 168.902 126.667 170.119V183.339C126.667 184.556 127.637 185.542 128.833 185.542H141.833C143.03 185.542 144 184.556 144 183.339V170.119C144 168.902 143.03 167.915 141.833 167.915ZM139.667 181.136H131V172.322H139.667V181.136Z" fill="black"/>
<path d="M163.5 167.915H150.5C149.304 167.915 148.333 168.902 148.333 170.119V183.339C148.333 184.556 149.304 185.542 150.5 185.542H163.5C164.697 185.542 165.667 184.556 165.667 183.339V170.119C165.667 168.902 164.697 167.915 163.5 167.915ZM161.333 181.136H152.667V172.322H161.333V181.136Z" fill="black"/>
<path d="M185.167 167.915H172.167C170.97 167.915 170 168.902 170 170.119V183.339C170 184.556 170.97 185.542 172.167 185.542H185.167C186.363 185.542 187.333 184.556 187.333 183.339V170.119C187.333 168.902 186.363 167.915 185.167 167.915ZM183 181.136H174.333V172.322H183V181.136Z" fill="black"/>
<path d="M105 134.865H102.833C101.637 134.865 100.667 135.851 100.667 137.068V139.271C100.667 140.488 101.637 141.475 102.833 141.475H105C106.196 141.475 107.167 140.488 107.167 139.271V137.068C107.167 135.851 106.196 134.865 105 134.865Z" fill="black"/>
<path d="M113.667 134.865H111.5C110.304 134.865 109.333 135.851 109.333 137.068V139.271C109.333 140.488 110.304 141.475 111.5 141.475H113.667C114.863 141.475 115.833 140.488 115.833 139.271V137.068C115.833 135.851 114.863 134.865 113.667 134.865Z" fill="black"/>
<path d="M105 143.678H102.833C101.637 143.678 100.667 144.665 100.667 145.881V148.085C100.667 149.302 101.637 150.288 102.833 150.288H105C106.196 150.288 107.167 149.302 107.167 148.085V145.881C107.167 144.665 106.196 143.678 105 143.678Z" fill="black"/>
<path d="M113.667 143.678H111.5C110.304 143.678 109.333 144.665 109.333 145.881V148.085C109.333 149.302 110.304 150.288 111.5 150.288H113.667C114.863 150.288 115.833 149.302 115.833 148.085V145.881C115.833 144.665 114.863 143.678 113.667 143.678Z" fill="black"/>
<path d="M105 152.492H102.833C101.637 152.492 100.667 153.478 100.667 154.695V156.898C100.667 158.115 101.637 159.102 102.833 159.102H105C106.196 159.102 107.167 158.115 107.167 156.898V154.695C107.167 153.478 106.196 152.492 105 152.492Z" fill="black"/>
<path d="M113.667 152.492H111.5C110.304 152.492 109.333 153.478 109.333 154.695V156.898C109.333 158.115 110.304 159.102 111.5 159.102H113.667C114.863 159.102 115.833 158.115 115.833 156.898V154.695C115.833 153.478 114.863 152.492 113.667 152.492Z" fill="black"/>
<path d="M105 161.305H102.833C101.637 161.305 100.667 162.292 100.667 163.509V165.712C100.667 166.929 101.637 167.915 102.833 167.915H105C106.196 167.915 107.167 166.929 107.167 165.712V163.509C107.167 162.292 106.196 161.305 105 161.305Z" fill="black"/>
<path d="M113.667 161.305H111.5C110.304 161.305 109.333 162.292 109.333 163.509V165.712C109.333 166.929 110.304 167.915 111.5 167.915H113.667C114.863 167.915 115.833 166.929 115.833 165.712V163.509C115.833 162.292 114.863 161.305 113.667 161.305Z" fill="black"/>
<path d="M105 170.119H102.833C101.637 170.119 100.667 171.105 100.667 172.322V174.526C100.667 175.742 101.637 176.729 102.833 176.729H105C106.196 176.729 107.167 175.742 107.167 174.526V172.322C107.167 171.105 106.196 170.119 105 170.119Z" fill="black"/>
<path d="M113.667 170.119H111.5C110.304 170.119 109.333 171.105 109.333 172.322V174.526C109.333 175.742 110.304 176.729 111.5 176.729H113.667C114.863 176.729 115.833 175.742 115.833 174.526V172.322C115.833 171.105 114.863 170.119 113.667 170.119Z" fill="black"/>
<path d="M105 178.932H102.833C101.637 178.932 100.667 179.919 100.667 181.136V183.339C100.667 184.556 101.637 185.542 102.833 185.542H105C106.196 185.542 107.167 184.556 107.167 183.339V181.136C107.167 179.919 106.196 178.932 105 178.932Z" fill="black"/>
<path d="M113.667 178.932H111.5C110.304 178.932 109.333 179.919 109.333 181.136V183.339C109.333 184.556 110.304 185.542 111.5 185.542H113.667C114.863 185.542 115.833 184.556 115.833 183.339V181.136C115.833 179.919 114.863 178.932 113.667 178.932Z" fill="black"/>
<path d="M105 187.746H102.833C101.637 187.746 100.667 188.732 100.667 189.949V192.153C100.667 193.37 101.637 194.356 102.833 194.356H105C106.196 194.356 107.167 193.37 107.167 192.153V189.949C107.167 188.732 106.196 187.746 105 187.746Z" fill="black"/>
<path d="M113.667 187.746H111.5C110.304 187.746 109.333 188.732 109.333 189.949V192.153C109.333 193.37 110.304 194.356 111.5 194.356H113.667C114.863 194.356 115.833 193.37 115.833 192.153V189.949C115.833 188.732 114.863 187.746 113.667 187.746Z" fill="black"/>
<path d="M105 196.56H102.833C101.637 196.56 100.667 197.546 100.667 198.763V200.966C100.667 202.183 101.637 203.17 102.833 203.17H105C106.196 203.17 107.167 202.183 107.167 200.966V198.763C107.167 197.546 106.196 196.56 105 196.56Z" fill="black"/>
<path d="M113.667 196.56H111.5C110.304 196.56 109.333 197.546 109.333 198.763V200.966C109.333 202.183 110.304 203.17 111.5 203.17H113.667C114.863 203.17 115.833 202.183 115.833 200.966V198.763C115.833 197.546 114.863 196.56 113.667 196.56Z" fill="black"/>
<path d="M105 205.373H102.833C101.637 205.373 100.667 206.359 100.667 207.576V209.78C100.667 210.996 101.637 211.983 102.833 211.983H105C106.196 211.983 107.167 210.996 107.167 209.78V207.576C107.167 206.359 106.196 205.373 105 205.373Z" fill="black"/>
<path d="M113.667 205.373H111.5C110.304 205.373 109.333 206.359 109.333 207.576V209.78C109.333 210.996 110.304 211.983 111.5 211.983H113.667C114.863 211.983 115.833 210.996 115.833 209.78V207.576C115.833 206.359 114.863 205.373 113.667 205.373Z" fill="black"/>
<path d="M211.167 121.644H202.5C201.304 121.644 200.333 122.631 200.333 123.847V132.661C200.333 133.878 201.304 134.864 202.5 134.864H211.167C212.363 134.864 213.334 133.878 213.334 132.661V123.847C213.334 122.631 212.363 121.644 211.167 121.644ZM209 130.458H204.667V126.051H209V130.458Z" fill="black"/>
<path d="M211.167 139.271H202.5C201.304 139.271 200.333 140.258 200.333 141.475V150.288C200.333 151.505 201.304 152.492 202.5 152.492H211.167C212.363 152.492 213.334 151.505 213.334 150.288V141.475C213.334 140.258 212.363 139.271 211.167 139.271ZM209 148.085H204.667V143.678H209V148.085Z" fill="black"/>
<path d="M211.167 156.898H202.5C201.304 156.898 200.333 157.885 200.333 159.102V167.915C200.333 169.132 201.304 170.119 202.5 170.119H211.167C212.363 170.119 213.334 169.132 213.334 167.915V159.102C213.334 157.885 212.363 156.898 211.167 156.898ZM209 165.712H204.667V161.305H209V165.712Z" fill="black"/>
<path d="M211.167 174.526H202.5C201.304 174.526 200.333 175.512 200.333 176.729V185.543C200.333 186.759 201.304 187.746 202.5 187.746H211.167C212.363 187.746 213.334 186.759 213.334 185.543V176.729C213.334 175.512 212.363 174.526 211.167 174.526ZM209 183.339H204.667V178.932H209V183.339Z" fill="black"/>
<path d="M211.167 192.152H202.5C201.304 192.152 200.333 193.139 200.333 194.356V203.169C200.333 204.386 201.304 205.373 202.5 205.373H211.167C212.363 205.373 213.334 204.386 213.334 203.169V194.356C213.334 193.139 212.363 192.152 211.167 192.152ZM209 200.966H204.667V196.559H209V200.966Z" fill="black"/>
</svg>
