<svg viewBox="0 0 316 316" fill="none" xmlns="http://www.w3.org/2000/svg">
<rect width="316" height="316" fill="#B3D7C4"/>
<path d="M140.667 223H223V218.357H220.833V177.322L207.693 171.696C205.727 160.852 204.367 149.892 203.624 138.874L203.351 134.786H199.167V133.625C199.167 131.701 200.621 130.143 202.417 130.143H204.583C208.772 130.143 212.167 126.505 212.167 122.018C212.167 120.094 213.621 118.536 215.417 118.536H223V113.893H215.417C211.228 113.893 207.833 117.53 207.833 122.018C207.833 123.941 206.379 125.5 204.583 125.5H202.417C198.228 125.5 194.833 129.137 194.833 133.625V134.786H162.333V126.661C162.333 122.173 165.728 118.536 169.917 118.536H174.25C180.828 118.528 186.159 112.816 186.167 105.768C186.167 101.28 189.562 97.6429 193.75 97.6429H210V93H193.75C187.172 93.0079 181.841 98.7197 181.833 105.768C181.833 110.255 178.438 113.893 174.25 113.893H148.25C141.672 113.901 136.341 119.613 136.333 126.661C136.333 131.148 132.938 134.786 128.75 134.786H124.417C117.838 134.794 112.507 140.505 112.5 147.554V155.679H108.316L108.076 159.279C106.728 179.509 102.605 199.416 95.8385 218.357H93V223H140.667ZM173.167 195.143H168.833C166.44 195.143 164.5 197.222 164.5 199.786V218.357H160.167V192.821C160.167 191.539 161.137 190.5 162.333 190.5H173.167V195.143ZM168.833 218.357V199.786H173.167V218.357H168.833ZM216.5 218.357H201.333V211.393H192.667V218.357H177.5V180.464L197 172.108L216.5 180.464V218.357ZM197 167.107L173.167 177.322V185.857H162.333C158.744 185.857 155.833 188.975 155.833 192.821V218.357H143.789C151.69 195.944 156.88 172.54 159.23 148.714H200.094C200.787 155.73 201.753 162.724 202.932 169.649L197 167.107ZM148.597 186.34C146.873 177.411 145.701 168.37 145.091 159.276L144.851 155.679H140.667V154.518C140.667 152.594 142.121 151.036 143.917 151.036H146.083C150.272 151.036 153.667 147.398 153.667 142.911C153.667 141.516 154.444 140.257 155.641 139.71C154.539 155.439 152.182 171.04 148.597 186.34ZM199.316 139.429C199.421 140.975 199.57 142.523 199.7 144.071H159.617C159.745 142.523 159.904 140.979 160.011 139.429H199.316ZM116.833 147.554C116.833 143.066 120.228 139.429 124.417 139.429H128.75C135.328 139.421 140.659 133.709 140.667 126.661C140.667 122.173 144.062 118.536 148.25 118.536H160.733C158.965 120.82 157.998 123.694 158 126.661V134.786H155.982V134.888C152.196 135.384 149.346 138.823 149.333 142.911C149.333 144.834 147.879 146.393 146.083 146.393H143.917C139.728 146.393 136.333 150.03 136.333 154.518V155.679H116.833V147.554ZM140.818 160.321C140.927 161.87 141.096 163.416 141.237 164.964H111.948C112.086 163.418 112.24 161.872 112.349 160.321H140.818ZM111.483 169.607H141.667C142.646 178.398 144.137 187.114 146.131 195.705L146.246 195.674C144.187 203.335 141.856 210.899 139.178 218.355H100.478C105.943 202.633 109.638 186.267 111.483 169.607Z" fill="black"/>
<path d="M181.833 183.536H186.167V188.179H181.833V183.536Z" fill="black"/>
<path d="M190.5 183.536H194.833V188.179H190.5V183.536Z" fill="black"/>
<path d="M199.167 183.536H203.5V188.179H199.167V183.536Z" fill="black"/>
<path d="M207.833 183.536H212.167V188.179H207.833V183.536Z" fill="black"/>
<path d="M181.833 192.822H186.167V197.464H181.833V192.822Z" fill="black"/>
<path d="M190.5 192.822H194.833V197.464H190.5V192.822Z" fill="black"/>
<path d="M199.167 192.822H203.5V197.464H199.167V192.822Z" fill="black"/>
<path d="M207.833 192.822H212.167V197.464H207.833V192.822Z" fill="black"/>
<path d="M181.833 202.107H186.167V206.75H181.833V202.107Z" fill="black"/>
<path d="M190.5 202.107H194.833V206.75H190.5V202.107Z" fill="black"/>
<path d="M199.167 202.107H203.5V206.75H199.167V202.107Z" fill="black"/>
<path d="M207.833 202.107H212.167V206.75H207.833V202.107Z" fill="black"/>
<path d="M110.333 202.107H121.167V206.75H110.333V202.107Z" fill="black"/>
<path d="M110.333 209.072H116.833V213.715H110.333V209.072Z" fill="black"/>
<path d="M153.667 104.607H171V109.25H153.667V104.607Z" fill="black"/>
<path d="M214.333 93H223V97.6429H214.333V93Z" fill="black"/>
</svg>
