<svg viewBox="0 0 316 316" fill="none" xmlns="http://www.w3.org/2000/svg">
<rect width="316" height="316" fill="#B3D7C4"/>
<path d="M129.833 166.667H134.167V171H129.833V166.667Z" fill="black"/>
<path d="M138.499 166.666H142.833V171H138.499V166.666Z" fill="black"/>
<path d="M147.166 166.666H151.5V171H147.166V166.666Z" fill="black"/>
<path d="M129.833 175.333H134.167V179.667H129.833V175.333Z" fill="black"/>
<path d="M138.499 175.333H142.833V179.667H138.499V175.333Z" fill="black"/>
<path d="M147.166 175.333H151.5V179.667H147.166V175.333Z" fill="black"/>
<path d="M155.833 175.333H160.167V179.667H155.833V175.333Z" fill="black"/>
<path d="M164.499 175.333H168.832V179.667H164.499V175.333Z" fill="black"/>
<path d="M129.833 184H134.167V188.333H129.833V184Z" fill="black"/>
<path d="M138.499 184H142.833V188.333H138.499V184Z" fill="black"/>
<path d="M147.166 184H151.5V188.333H147.166V184Z" fill="black"/>
<path d="M155.833 184H160.167V188.333H155.833V184Z" fill="black"/>
<path d="M164.499 184H168.832V188.333H164.499V184Z" fill="black"/>
<path d="M129.833 192.667H134.167V197H129.833V192.667Z" fill="black"/>
<path d="M138.499 192.667H142.833V197H138.499V192.667Z" fill="black"/>
<path d="M147.166 192.667H151.5V197H147.166V192.667Z" fill="black"/>
<path d="M155.833 192.667H160.167V197H155.833V192.667Z" fill="black"/>
<path d="M164.499 192.667H168.832V197H164.499V192.667Z" fill="black"/>
<path d="M129.833 201.333H134.167V205.667H129.833V201.333Z" fill="black"/>
<path d="M138.499 201.333H142.833V205.667H138.499V201.333Z" fill="black"/>
<path d="M147.166 201.333H151.5V205.667H147.166V201.333Z" fill="black"/>
<path d="M155.833 201.333H160.167V205.667H155.833V201.333Z" fill="black"/>
<path d="M164.499 201.333H168.832V205.667H164.499V201.333Z" fill="black"/>
<path d="M129.833 210H134.167V214.333H129.833V210Z" fill="black"/>
<path d="M138.499 210H142.833V214.333H138.499V210Z" fill="black"/>
<path d="M147.166 210H151.5V214.333H147.166V210Z" fill="black"/>
<path d="M155.833 210H160.167V214.333H155.833V210Z" fill="black"/>
<path d="M164.499 210H168.832V214.333H164.499V210Z" fill="black"/>
<path d="M220.832 99.5H205.666V95.1667C205.666 93.9701 204.696 93 203.499 93H181.833C180.636 93 179.666 93.9701 179.666 95.1667V99.5H95.1666C93.9701 99.5 93 100.47 93 101.667V110.333C93 111.531 93.9701 112.5 95.1666 112.5H101.667V153.667C101.667 154.864 102.637 155.833 103.833 155.833C105.03 155.833 106 156.803 106 158C106 159.198 105.03 160.167 103.833 160.167C102.637 160.167 101.667 159.198 101.667 158H97.3333C97.3396 159.586 97.9289 161.115 98.9911 162.293L93.4338 169.701L93.4613 169.722C93.1714 170.086 93.0095 170.536 93 171V179.667C93 180.242 93.2285 180.792 93.6348 181.199L97.9681 185.532C98.3743 185.938 98.9255 186.167 99.4999 186.167H108.167C108.741 186.167 109.292 185.938 109.698 185.532L114.032 181.199C114.438 180.792 114.666 180.242 114.666 179.667V171C114.657 170.536 114.495 170.086 114.205 169.722L114.233 169.701L108.675 162.293C110.123 160.685 110.669 158.459 110.13 156.364C109.593 154.27 108.042 152.583 106 151.871V112.5H179.666V114.667C179.666 115.864 180.636 116.833 181.833 116.833H186.166V218.667H177.499V132H173.166V140.667H160.166V136.333H155.833V140.667H142.833V138.5H138.5V140.667H125.5V134.167H153.666V129.833H125.5V121.167H121.166V218.667H117.73L107.532 208.469C106.685 207.623 105.314 207.623 104.468 208.469L94.2695 218.667H93V223H222.999V218.667H221.309C222.834 217.003 223.376 214.66 222.737 212.495C222.099 210.33 220.373 208.656 218.189 208.085C219.29 205.369 218.439 202.254 216.11 200.475C213.781 198.697 210.55 198.697 208.222 200.475C205.892 202.254 205.042 205.369 206.143 208.085C203.958 208.656 202.233 210.33 201.595 212.495C200.956 214.66 201.497 217.003 203.022 218.667H199.166V116.833H203.499C204.696 116.833 205.666 115.864 205.666 114.667V112.5H220.832C222.029 112.5 222.999 111.531 222.999 110.333V101.667C222.999 100.47 222.029 99.5 220.832 99.5ZM104.917 164.5L108.167 168.833H99.4999L102.75 164.5H104.917ZM110.333 178.771L107.269 181.833H100.397L97.3333 178.771V173.167H110.333V178.771ZM211.516 103.833L205.666 107.734V103.833H211.516ZM183.999 97.3333H192.666V106H183.999V97.3333ZM125.5 104.267L131.35 108.167H119.649L125.5 104.267ZM112.5 107.734L106.649 103.833H118.35L112.5 107.734ZM132.649 103.833H144.35L138.5 107.734L132.649 103.833ZM151.5 104.267L157.35 108.167H145.649L151.5 104.267ZM158.649 103.833H170.35L164.499 107.734L158.649 103.833ZM97.3333 103.833H98.8504L105.35 108.167H97.3333V103.833ZM171.649 108.167L178.149 103.833H179.666V108.167H171.649ZM194.832 211.517L190.933 205.667L194.832 199.817V211.517ZM194.832 159.517L190.933 153.667L194.832 147.817V159.517ZM190.499 160.817L194.399 166.667L190.499 172.517V160.817ZM190.499 146.517V134.817L194.399 140.667L190.499 146.517ZM190.499 186.817L194.399 192.667L190.499 198.517V186.817ZM194.832 185.504L190.933 179.667L194.832 173.817V185.504ZM190.933 127.667L194.832 121.817V133.517L190.933 127.667ZM190.499 120.517V116.833H192.951L190.499 120.517ZM173.166 145V166.667H160.166V145H173.166ZM155.833 145V163.634L150.85 158.709C150.446 158.31 149.901 158.085 149.333 158.083H142.833V145H155.833ZM138.5 145V148.612H125.5V145H138.5ZM106 213.064L111.603 218.667H100.397L106 213.064ZM125.5 218.667V152.945H138.5V160.258C138.5 161.455 139.47 162.424 140.666 162.424H148.442L156.482 170.375C156.887 170.774 157.431 170.999 157.999 171H173.166V218.667H125.5ZM190.499 212.817L194.399 218.667H190.499V212.817ZM216.499 216.5C215.302 216.5 214.332 215.531 214.332 214.333C214.332 213.137 215.302 212.167 216.499 212.167C217.696 212.167 218.666 213.137 218.666 214.333C218.666 215.531 217.696 216.5 216.499 216.5ZM212.166 203.5C213.362 203.5 214.332 204.47 214.332 205.667C214.332 206.864 213.362 207.833 212.166 207.833C210.969 207.833 209.999 206.864 209.999 205.667C209.999 204.47 210.969 203.5 212.166 203.5ZM207.832 212.167C209.029 212.167 209.999 213.137 209.999 214.333C209.999 215.531 209.029 216.5 207.832 216.5C206.636 216.5 205.666 215.531 205.666 214.333C205.666 213.137 206.636 212.167 207.832 212.167ZM201.332 112.5H183.999V110.333H194.832C196.029 110.333 196.999 109.364 196.999 108.167V97.3333H201.332V112.5ZM212.815 108.167L218.666 104.267V108.167H212.815Z" fill="black"/>
</svg>
